# xmcd
# Track frame offsets:
# 150
# 16454
# 27482
# 48440
# 67589
# 93196
# 111997
# 128702
# 142902
# 162100
# 174893
# 191807
# 223234
# 232663
# 256099
#
# Disc length: 3894 seconds
# Revision: 0
# Processed by: cddbd v1.5.2PL0 Copyright (c) Steve Scherf et al.
# Submitted via: VisiTrax 2.11.1.266 - For more info visit www.synapsa.com
#
DISCID=be0f340f
DTITLE=Michael Martin Murphey - Cowboy Classics
DYEAR=2009
DGENRE=Cowboy
TTITLE0=MMM - I Ride An Old Paint
TTITLE1=MMM - Whoopie Ti-Yi-Yo
TTITLE2=MMM - The Old Chisolm Trail
TTITLE3=MMM - Strawberry Roan
TTITLE4=MMM - Red River Valley
TTITLE5=MMM - Little Joe The Wrangler
TTITLE6=MMM - The Colorado Trail
TTITLE7=MMM - Tying Knots In The DevilsTail
TTITLE8=MMM - When The Work's All Done This Fall
TTITLE9=MMM - The Yellow Rose Of Texs
TTITLE10=MMM - Utah Carroll
TTITLE11=MMM - The Streets Of Lorado
TTITLE12=MMM - The Buckhouse Orchestra
TTITLE13=MMM - Old Horse
TTITLE14=MMM - Night Hawk
EXTD=
EXTT0=
EXTT1=
EXTT2=
EXTT3=
EXTT4=
EXTT5=
EXTT6=
EXTT7=
EXTT8=
EXTT9=
EXTT10=
EXTT11=
EXTT12=
EXTT13=
EXTT14=
PLAYORDER=
